<svg id="sprite_name" viewBox="0 0 800 800" fill="none" xmlns="http://www.w3.org/2000/svg">
<g clip-path="url(#clip0_1_2)">
<path d="M425.724 607.53L789.35 243.893C803.552 229.695 803.552 206.669 789.348 192.468C775.147 178.269 752.124 178.269 737.922 192.47L400.007 530.393L62.0752 192.468C47.874 178.269 24.851 178.269 10.6497 192.47C3.54914 199.568 2.93349e-05 208.875 2.89281e-05 218.182C2.85213e-05 227.488 3.54916 236.795 10.6522 243.896L374.298 607.53C381.118 614.352 390.366 618.182 400.01 618.182C409.653 618.182 418.904 614.352 425.724 607.53Z" fill="currentColor"/>
</g>
<defs>
<clipPath id="clip0_1_2">
<rect width="800" height="800" fill="white" transform="translate(800 3.05176e-05) rotate(90)"/>
</clipPath>
</defs>
</svg>
